# xmcd
#
# Track frame offsets:
#	150
#	4068
#	16036
#	22021
#	34193
#	43743
#	53119
#	78690
#	87259
#	97497
#	105439
#	121576
#	131492
#	151536
#	166502
#	170984
#	175630
#	177313
#	202693
#	230389
#	263587
#	282130
#	301176
#
# Disc length: 4219 seconds
#
# Revision: 0
# Processed by: cddbd v1.5.2PL0 Copyright (c) Steve Scherf et al.
# Submitted via: audiograbber 1.83.01
#
DISCID=14107917
DTITLE=Atze Schröder - 400%Atze-Goldene Zeiten Live-CD2
DYEAR=2010
DGENRE=Comedy
TTITLE0=Intro
TTITLE1=Goldene Zeiten
TTITLE2=Nachbarneid
TTITLE3=Promihunze
TTITLE4=Kinder ins Bett
TTITLE5=Hildegards Ältester
TTITLE6=Hoast
TTITLE7=Currywurst
TTITLE8=Stammfettsucht
TTITLE9=Willenstärke
TTITLE10=Bioimbiss
TTITLE11=Mutterliebe
TTITLE12=Autokauf
TTITLE13=Rave
TTITLE14=Schießbude
TTITLE15=Ersatzteile
TTITLE16=Michelle
TTITLE17=Fotokunst
TTITLE18=3 Sterne Deluxe
TTITLE19=Fremdgehen
TTITLE20=Jugendliebe
TTITLE21=Geständnis
TTITLE22=Applaus
EXTD=
EXTT0=
EXTT1=
EXTT2=
EXTT3=
EXTT4=
EXTT5=
EXTT6=
EXTT7=
EXTT8=
EXTT9=
EXTT10=
EXTT11=
EXTT12=
EXTT13=
EXTT14=
EXTT15=
EXTT16=
EXTT17=
EXTT18=
EXTT19=
EXTT20=
EXTT21=
EXTT22=
PLAYORDER=
